<svg width="28" height="28" viewBox="0 0 28 28" fill="none" xmlns="http://www.w3.org/2000/svg">
<path d="M14.0013 17.8L18.868 12.9H9.1013L14.0013 17.8ZM14.0013 27.3333C12.1791 27.3333 10.4569 26.9833 8.83464 26.2833C7.21241 25.5833 5.79575 24.6277 4.58464 23.4166C3.37352 22.2055 2.41797 20.7888 1.71797 19.1666C1.01797 17.5444 0.667969 15.8222 0.667969 14C0.667969 12.1555 1.01797 10.4222 1.71797 8.79996C2.41797 7.17774 3.37352 5.76663 4.58464 4.56663C5.79575 3.36663 7.21241 2.41663 8.83464 1.71663C10.4569 1.01663 12.1791 0.666626 14.0013 0.666626C15.8457 0.666626 17.5791 1.01663 19.2013 1.71663C20.8235 2.41663 22.2346 3.36663 23.4346 4.56663C24.6346 5.76663 25.5846 7.17774 26.2846 8.79996C26.9846 10.4222 27.3346 12.1555 27.3346 14C27.3346 15.8222 26.9846 17.5444 26.2846 19.1666C25.5846 20.7888 24.6346 22.2055 23.4346 23.4166C22.2346 24.6277 20.8235 25.5833 19.2013 26.2833C17.5791 26.9833 15.8457 27.3333 14.0013 27.3333ZM14.0013 25.3333C17.1569 25.3333 19.8346 24.2277 22.0346 22.0166C24.2346 19.8055 25.3346 17.1333 25.3346 14C25.3346 10.8444 24.2346 8.16663 22.0346 5.96663C19.8346 3.76663 17.1569 2.66663 14.0013 2.66663C10.868 2.66663 8.19575 3.76663 5.98464 5.96663C3.77352 8.16663 2.66797 10.8444 2.66797 14C2.66797 17.1333 3.77352 19.8055 5.98464 22.0166C8.19575 24.2277 10.868 25.3333 14.0013 25.3333Z" fill="#7C7C7C"/>
</svg>
