<svg width="20" height="19" viewBox="0 0 20 19" fill="none" xmlns="http://www.w3.org/2000/svg">
<path d="M10 18.3251L8.975 17.4001C7.20833 15.7835 5.75 14.3876 4.6 13.2126C3.45 12.0376 2.53333 10.9876 1.85 10.0626C1.16667 9.13762 0.6875 8.30012 0.4125 7.55012C0.1375 6.80012 0 6.04179 0 5.27512C0 3.77512 0.504167 2.52096 1.5125 1.51262C2.52083 0.504289 3.76667 0.00012207 5.25 0.00012207C6.2 0.00012207 7.07917 0.225122 7.8875 0.675122C8.69583 1.12512 9.4 1.77512 10 2.62512C10.7 1.72512 11.4417 1.06262 12.225 0.637622C13.0083 0.212622 13.85 0.00012207 14.75 0.00012207C16.2333 0.00012207 17.4792 0.504289 18.4875 1.51262C19.4958 2.52096 20 3.77512 20 5.27512C20 6.04179 19.8625 6.80012 19.5875 7.55012C19.3125 8.30012 18.8333 9.13762 18.15 10.0626C17.4667 10.9876 16.55 12.0376 15.4 13.2126C14.25 14.3876 12.7917 15.7835 11.025 17.4001L10 18.3251ZM10 16.3501C11.6833 14.8001 13.0708 13.471 14.1625 12.3626C15.2542 11.2543 16.1208 10.2835 16.7625 9.45012C17.4042 8.61679 17.8542 7.87512 18.1125 7.22512C18.3708 6.57512 18.5 5.92512 18.5 5.27512C18.5 4.17512 18.15 3.27096 17.45 2.56262C16.75 1.85429 15.85 1.50012 14.75 1.50012C13.9 1.50012 13.1083 1.76262 12.375 2.28762C11.6417 2.81262 11.05 3.55012 10.6 4.50012H9.375C8.94167 3.56679 8.35833 2.83346 7.625 2.30012C6.89167 1.76679 6.1 1.50012 5.25 1.50012C4.15 1.50012 3.25 1.85429 2.55 2.56262C1.85 3.27096 1.5 4.17512 1.5 5.27512C1.5 5.92512 1.62917 6.57929 1.8875 7.23762C2.14583 7.89596 2.59583 8.64596 3.2375 9.48762C3.87917 10.3293 4.75 11.3001 5.85 12.4001C6.95 13.5001 8.33333 14.8168 10 16.3501Z" fill="#027DBA"/>
</svg>
