<svg width="24" height="24" viewBox="0 0 24 24" fill="none" xmlns="http://www.w3.org/2000/svg">
<g clip-path="url(#clip0_1204_6818)">
<path d="M12 22C17.5228 22 22 17.5228 22 12C22 6.47715 17.5228 2 12 2C6.47715 2 2 6.47715 2 12C2 17.5228 6.47715 22 12 22Z" fill="url(#paint0_linear_1204_6818)"/>
<path d="M19.2781 12.1428H17.4903C17.4903 8.5258 14.5264 5.59375 10.87 5.59375C7.25889 5.59375 4.32301 8.45402 4.25117 12.0091C4.17682 15.6839 7.66198 18.875 11.3772 18.875H11.8445C15.12 18.875 19.5101 16.3385 20.196 13.248C20.3228 12.6783 19.8678 12.1428 19.2781 12.1428ZM8.21322 12.304C8.21322 12.7877 7.81331 13.1833 7.32436 13.1833C6.8354 13.1833 6.43551 12.7875 6.43551 12.304V10.8815C6.43551 10.3978 6.8354 10.0022 7.32436 10.0022C7.81331 10.0022 8.21322 10.3978 8.21322 10.8815V12.304ZM11.2997 12.304C11.2997 12.7877 10.8998 13.1833 10.4109 13.1833C9.9219 13.1833 9.522 12.7875 9.522 12.304V10.8815C9.522 10.3978 9.92207 10.0022 10.4109 10.0022C10.8998 10.0022 11.2997 10.3978 11.2997 10.8815V12.304Z" fill="url(#paint1_linear_1204_6818)"/>
</g>
<defs>
<linearGradient id="paint0_linear_1204_6818" x1="12" y1="2" x2="12" y2="22" gradientUnits="userSpaceOnUse">
<stop stop-color="#534BB1"/>
<stop offset="1" stop-color="#551BF9"/>
</linearGradient>
<linearGradient id="paint1_linear_1204_6818" x1="12.2337" y1="5.59375" x2="12.2337" y2="18.875" gradientUnits="userSpaceOnUse">
<stop stop-color="white"/>
<stop offset="1" stop-color="white" stop-opacity="0.82"/>
</linearGradient>
<clipPath id="clip0_1204_6818">
<rect width="20" height="20" fill="white" transform="translate(2 2)"/>
</clipPath>
</defs>
</svg>
