<svg width="31" height="25" viewBox="0 0 31 25" fill="none" xmlns="http://www.w3.org/2000/svg">
<g clip-path="url(#clip0_232_658)">
<path d="M5.03507 18.5438C5.22215 18.3567 5.47938 18.2476 5.75219 18.2476H30.493C30.9451 18.2476 31.1711 18.7932 30.8515 19.1128L25.9642 24.0001C25.7771 24.1872 25.5199 24.2963 25.247 24.2963H0.506281C0.0541819 24.2963 -0.171868 23.7507 0.14772 23.4311L5.03507 18.5438Z" fill="url(#paint0_linear_232_658)"/>
<path d="M5.03507 0.296203C5.22994 0.109127 5.48717 0 5.75219 0H30.493C30.9451 0 31.1711 0.545637 30.8515 0.865225L25.9642 5.75258C25.7771 5.93965 25.5199 6.04878 25.247 6.04878H0.506281C0.0541819 6.04878 -0.171868 5.50314 0.14772 5.18355L5.03507 0.296203Z" fill="url(#paint1_linear_232_658)"/>
<path d="M25.9642 9.36163C25.7771 9.17456 25.5199 9.06543 25.247 9.06543H0.506281C0.0541819 9.06543 -0.171868 9.61107 0.14772 9.93065L5.03507 14.818C5.22215 15.0051 5.47938 15.1142 5.75219 15.1142H30.493C30.9451 15.1142 31.1711 14.5686 30.8515 14.249L25.9642 9.36163Z" fill="url(#paint2_linear_232_658)"/>
</g>
<defs>
<linearGradient id="paint0_linear_232_658" x1="28.1295" y1="-2.91969" x2="11.0069" y2="29.8769" gradientUnits="userSpaceOnUse">
<stop stop-color="#00FFA3"/>
<stop offset="1" stop-color="#DC1FFF"/>
</linearGradient>
<linearGradient id="paint1_linear_232_658" x1="20.6426" y1="-6.82837" x2="3.51999" y2="25.9682" gradientUnits="userSpaceOnUse">
<stop stop-color="#00FFA3"/>
<stop offset="1" stop-color="#DC1FFF"/>
</linearGradient>
<linearGradient id="paint2_linear_232_658" x1="24.3622" y1="-4.88636" x2="7.23962" y2="27.9103" gradientUnits="userSpaceOnUse">
<stop stop-color="#00FFA3"/>
<stop offset="1" stop-color="#DC1FFF"/>
</linearGradient>
<clipPath id="clip0_232_658">
<rect width="31" height="24.2965" fill="white"/>
</clipPath>
</defs>
</svg>
