<svg width="117" height="171" viewBox="0 0 117 171" fill="none" xmlns="http://www.w3.org/2000/svg">
<g opacity="0.6" filter="url(#filter0_f_1474_62659)">
<path d="M156.974 66.906C157.864 70.9164 158.472 75.0406 158.776 79.2542L156.781 79.398C156.926 81.4116 157 83.4465 157 85.5C157 87.5535 156.926 89.5884 156.781 91.6021L158.776 91.7458C158.472 95.9595 157.864 100.084 156.974 104.094L155.021 103.661C154.131 107.674 152.951 111.571 151.508 115.324L153.374 116.042C151.867 119.962 150.078 123.73 148.033 127.319L146.295 126.329C144.272 129.883 141.992 133.255 139.483 136.419L141.05 137.661C138.452 140.939 135.613 143.998 132.563 146.81L131.207 145.339C128.217 148.096 125.019 150.607 121.642 152.844L122.746 154.512C119.278 156.809 115.625 158.824 111.816 160.529L110.999 158.703C107.32 160.349 103.491 161.697 99.5417 162.716L100.042 164.653C96.0545 165.682 91.9462 166.387 87.7433 166.739L87.5762 164.746C85.5723 164.914 83.5458 165 81.5 165C79.4542 165 77.4277 164.914 75.4238 164.746L75.2567 166.739C71.0538 166.387 66.9455 165.682 62.9584 164.653L63.4583 162.716C59.5087 161.697 55.6805 160.349 52.0012 158.703L51.1845 160.529C47.3749 158.824 43.7218 156.809 40.2539 154.512L41.3583 152.844C37.9811 150.607 34.783 148.096 31.7925 145.339L30.437 146.81C27.3868 143.998 24.5482 140.939 21.9496 137.661L23.5167 136.419C21.0082 133.255 18.7284 129.883 16.7046 126.329L14.9667 127.319C12.9224 123.73 11.1332 119.962 9.6256 116.042L11.4923 115.324C10.0486 111.571 8.86924 107.674 7.97859 103.661L6.02608 104.094C5.13618 100.084 4.52784 95.9595 4.22419 91.7458L6.21902 91.602C6.0739 89.5884 6 87.5535 6 85.5C6 83.4465 6.0739 81.4116 6.21902 79.398L4.22419 79.2542C4.52784 75.0406 5.13618 70.9164 6.02608 66.906L7.97859 67.3393C8.86924 63.3256 10.0486 59.4293 11.4923 55.6759L9.62559 54.9579C11.1332 51.0382 12.9224 47.2699 14.9667 43.6807L16.7045 44.6706C18.7284 41.1174 21.0082 37.7449 23.5167 34.5811L21.9496 33.3385C24.5482 30.0613 27.3868 27.0019 30.437 24.1901L31.7925 25.6607C34.783 22.904 37.9811 20.3927 41.3583 18.1558L40.2539 16.4884C43.7218 14.1914 47.3749 12.1756 51.1844 10.4712L52.0012 12.2968C55.6805 10.6507 59.5086 9.30348 63.4583 8.28376L62.9584 6.34726C66.9455 5.31786 71.0539 4.61294 75.2567 4.26062L75.4238 6.25363C77.4277 6.08564 79.4542 6 81.5 6C83.5458 6 85.5723 6.08564 87.5762 6.25363L87.7433 4.26062C91.9461 4.61294 96.0545 5.31786 100.042 6.34725L99.5417 8.28375C103.491 9.30348 107.319 10.6507 110.999 12.2968L111.816 10.4712C115.625 12.1756 119.278 14.1914 122.746 16.4884L121.642 18.1558C125.019 20.3927 128.217 22.904 131.207 25.6607L132.563 24.1901C135.613 27.0019 138.452 30.0613 141.05 33.3385L139.483 34.5811C141.992 37.7449 144.272 41.1174 146.295 44.6706L148.033 43.6807C150.078 47.2699 151.867 51.0382 153.374 54.9579L151.508 55.6759C152.951 59.4293 154.131 63.3256 155.021 67.3393L156.974 66.906Z" stroke="url(#paint0_linear_1474_62659)" stroke-width="4" stroke-dasharray="12 12"/>
</g>
<defs>
<filter id="filter0_f_1474_62659" x="0" y="0" width="163" height="171" filterUnits="userSpaceOnUse" color-interpolation-filters="sRGB">
<feFlood flood-opacity="0" result="BackgroundImageFix"/>
<feBlend mode="normal" in="SourceGraphic" in2="BackgroundImageFix" result="shape"/>
<feGaussianBlur stdDeviation="2" result="effect1_foregroundBlur_1474_62659"/>
</filter>
<linearGradient id="paint0_linear_1474_62659" x1="81.5" y1="4" x2="81.5" y2="167" gradientUnits="userSpaceOnUse">
<stop stop-color="#5F008C"/>
<stop offset="1" stop-color="#9B1ED6"/>
</linearGradient>
</defs>
</svg>
