<svg width="32" height="30" viewBox="0 0 32 30" fill="none" xmlns="http://www.w3.org/2000/svg">
<path d="M22.1667 17.6667C22.8611 17.6667 23.4792 17.3958 24.0208 16.8542C24.5625 16.3125 24.8333 15.6806 24.8333 14.9583C24.8333 14.2639 24.5625 13.6528 24.0208 13.125C23.4792 12.5972 22.8611 12.3333 22.1667 12.3333C21.4722 12.3333 20.8542 12.5972 20.3125 13.125C19.7708 13.6528 19.5 14.2639 19.5 14.9583C19.5 15.6806 19.7708 16.3125 20.3125 16.8542C20.8542 17.3958 21.4722 17.6667 22.1667 17.6667ZM2.5 25.2917V27.5V2.5V25.2917ZM2.5 30C1.86111 30 1.28472 29.75 0.770834 29.25C0.256945 28.75 0 28.1667 0 27.5V2.5C0 1.86111 0.256945 1.28472 0.770834 0.770833C1.28472 0.256945 1.86111 0 2.5 0H27.5C28.1667 0 28.75 0.256945 29.25 0.770833C29.75 1.28472 30 1.86111 30 2.5V8.08333H27.5V2.5H2.5V27.5H27.5V21.9583H30V27.5C30 28.1667 29.75 28.75 29.25 29.25C28.75 29.75 28.1667 30 27.5 30H2.5ZM17.4167 22.7917C16.4722 22.7917 15.7222 22.5139 15.1667 21.9583C14.6111 21.4028 14.3333 20.6667 14.3333 19.75V10.2917C14.3333 9.34722 14.6111 8.60417 15.1667 8.0625C15.7222 7.52083 16.4722 7.25 17.4167 7.25H28.6667C29.6111 7.25 30.3611 7.52083 30.9167 8.0625C31.4722 8.60417 31.75 9.34722 31.75 10.2917V19.75C31.75 20.6667 31.4722 21.4028 30.9167 21.9583C30.3611 22.5139 29.6111 22.7917 28.6667 22.7917H17.4167ZM29.25 20.2917V9.75H16.8333V20.2917H29.25Z" fill="#7C7C7C"/>
</svg>
