<svg width="35" height="34" viewBox="0 0 35 34" fill="none" xmlns="http://www.w3.org/2000/svg">
<path d="M16.082 33.625C13.8876 33.5139 11.832 33 9.91537 32.0833C7.9987 31.1666 6.33203 29.9653 4.91536 28.4791C3.4987 26.993 2.38064 25.2639 1.5612 23.2916C0.741753 21.3194 0.332031 19.2222 0.332031 17C0.332031 14.6944 0.769531 12.5278 1.64453 10.5C2.51953 8.4722 3.70703 6.70831 5.20703 5.20831C6.70703 3.70831 8.47092 2.52081 10.4987 1.64581C12.5265 0.770813 14.6931 0.333313 16.9987 0.333313C21.1376 0.333313 24.7348 1.63887 27.7904 4.24998C30.8459 6.86109 32.7209 10.1389 33.4154 14.0833H30.8737C30.4015 11.75 29.4154 9.66665 27.9154 7.83331C26.4154 5.99998 24.5404 4.62498 22.2904 3.70831V4.45831C22.2904 5.43054 21.957 6.27776 21.2904 6.99998C20.6237 7.7222 19.8043 8.08331 18.832 8.08331H15.207V11.7083C15.207 12.1805 15.0195 12.5694 14.6445 12.875C14.2695 13.1805 13.8459 13.3333 13.3737 13.3333H9.91537V17H14.4987V22.2083H11.707L3.20703 13.7083C3.06814 14.2639 2.97092 14.8125 2.91536 15.3541C2.85981 15.8958 2.83203 16.4444 2.83203 17C2.83203 20.75 4.09592 23.9861 6.6237 26.7083C9.15148 29.4305 12.3043 30.9028 16.082 31.125V33.625ZM32.4154 32.5416L26.832 26.9583C26.2487 27.375 25.6168 27.6944 24.9362 27.9166C24.2556 28.1389 23.5543 28.25 22.832 28.25C20.8598 28.25 19.1862 27.5625 17.8112 26.1875C16.4362 24.8125 15.7487 23.1389 15.7487 21.1666C15.7487 19.1944 16.4362 17.5208 17.8112 16.1458C19.1862 14.7708 20.8598 14.0833 22.832 14.0833C24.8043 14.0833 26.4779 14.7708 27.8529 16.1458C29.2279 17.5208 29.9154 19.1944 29.9154 21.1666C29.9154 21.8889 29.7973 22.5903 29.5612 23.2708C29.3251 23.9514 29.0126 24.5972 28.6237 25.2083L34.207 30.75L32.4154 32.5416ZM22.832 25.75C24.1098 25.75 25.1931 25.3055 26.082 24.4166C26.9709 23.5278 27.4154 22.4444 27.4154 21.1666C27.4154 19.8889 26.9709 18.8055 26.082 17.9166C25.1931 17.0278 24.1098 16.5833 22.832 16.5833C21.5543 16.5833 20.4709 17.0278 19.582 17.9166C18.6931 18.8055 18.2487 19.8889 18.2487 21.1666C18.2487 22.4444 18.6931 23.5278 19.582 24.4166C20.4709 25.3055 21.5543 25.75 22.832 25.75Z" fill="#7C7C7C"/>
</svg>
