<svg width="28" height="28" viewBox="0 0 28 28" fill="none" xmlns="http://www.w3.org/2000/svg">
<path d="M16.6346 26.7667C16.2346 27.1667 15.7513 27.3667 15.1846 27.3667C14.618 27.3667 14.1346 27.1667 13.7346 26.7667L1.23464 14.2667C1.01241 14.0445 0.862413 13.8111 0.784636 13.5667C0.706858 13.3222 0.667969 13.0667 0.667969 12.8V2.66669C0.667969 2.08891 0.856858 1.61113 1.23464 1.23335C1.61241 0.855576 2.09019 0.666687 2.66797 0.666687H12.8013C13.068 0.666687 13.3346 0.705576 13.6013 0.783354C13.868 0.861132 14.1124 1.01113 14.3346 1.23335L26.768 13.6667C27.1902 14.0889 27.4013 14.5834 27.4013 15.15C27.4013 15.7167 27.1902 16.2111 26.768 16.6334L16.6346 26.7667ZM15.268 25.4L25.4013 15.2667L12.8013 2.66669H2.66797V12.8L15.268 25.4ZM6.16797 7.86669C6.63464 7.86669 7.04019 7.69446 7.38464 7.35002C7.72908 7.00558 7.9013 6.60002 7.9013 6.13335C7.9013 5.66669 7.72908 5.26113 7.38464 4.91669C7.04019 4.57224 6.63464 4.40002 6.16797 4.40002C5.7013 4.40002 5.29575 4.57224 4.9513 4.91669C4.60686 5.26113 4.43464 5.66669 4.43464 6.13335C4.43464 6.60002 4.60686 7.00558 4.9513 7.35002C5.29575 7.69446 5.7013 7.86669 6.16797 7.86669Z" fill="#7C7C7C"/>
</svg>
